<svg width="151" height="152" viewBox="0 0 151 152" fill="none" xmlns="http://www.w3.org/2000/svg">
<path d="M78.4354 27.778C-5.30482 17.3478 -40.1717 149.514 78.4354 149.514C191.851 149.514 151 11.2385 78.4354 27.778Z" fill="#FDAD00" stroke="black" stroke-width="3"/>
<ellipse cx="81.5643" cy="39.252" rx="5.96015" ry="2.83107" fill="black"/>
<path d="M68.4518 95.5742C68.4518 104.514 81.7131 104.812 82.6071 95.5742" stroke="black" stroke-width="3"/>
<ellipse cx="53.1045" cy="93.7863" rx="3.72509" ry="4.91712" fill="black"/>
<ellipse cx="98.1039" cy="93.7863" rx="3.72509" ry="4.91712" fill="black"/>
<path d="M116.929 61.6522C124.141 21.9587 99.8266 9.69355 86.768 8.52265C62.8024 3.40398 45.36 30.6444 39.6345 44.9044C42.6267 45.3239 50.9315 46.641 60.2126 48.5532C69.4936 50.4654 91.5925 64.085 104.269 64.8259C106.505 64.2227 112.801 65.3246 116.929 61.6522Z" fill="#E0AFA0" stroke="black" stroke-width="3"/>
<path d="M22.0015 57.8165C26.5634 63.4642 35.6527 58.6143 44.1846 59.113C41.2203 56.8199 32.6337 53.3503 22.0015 57.8165Z" fill="#414C3C" stroke="black" stroke-width="3"/>
<path d="M63.9438 18.1957C68.6166 13.5767 79.2112 8.08082 87.7432 8.57948C104.28 26.9618 98.576 52.0182 93.6568 62.2487L60.2269 48.3092L47.9228 45.3887C48.7713 39.2417 54.3107 25.6556 63.9438 18.1957Z" fill="white" stroke="black" stroke-width="3"/>
<path d="M78.1331 76.7519C93.9782 77.678 98.4928 71.5822 102.506 65.7016C93.8865 62.5072 78.111 56.204 60.9442 48.5963L39.8786 44.9191C25.0417 56.0375 21.2427 58.2614 21.2427 58.2614C21.2427 58.2614 29.844 54.4753 37.5168 56.0328C54.5538 61.676 70.0317 77.2569 78.1331 76.7519Z" fill="white" stroke="black" stroke-width="3"/>
<ellipse rx="4.88375" ry="2.93024" transform="matrix(-0.998296 -0.0583467 -0.0583467 0.998296 87.6137 6.61491)" fill="black"/>
</svg>
