<svg width="210" height="192" viewBox="0 0 210 192" fill="none" xmlns="http://www.w3.org/2000/svg">
<path d="M158.462 19.2792C161.637 9.68873 174.018 -5.89581 198.142 8.48999C187.324 25.6857 162.87 21.7154 158.462 19.2792Z" fill="#89A113" stroke="black" stroke-width="3"/>
<path d="M152.456 183.15C79.2739 183.668 71.528 128.059 101.88 97.3798C109.261 86.264 112.959 81.7565 114.882 75.0254C121.477 51.9402 124.715 31.0593 151.434 31.8379C181.75 30.5585 185.302 54.0475 188.756 76.891L188.799 77.1791C189.547 82.1254 191.962 89.7596 195.02 96.6359C210.064 116.078 217.014 185.031 152.456 183.15Z" fill="#C1C100" stroke="black" stroke-width="3"/>
<path d="M139.321 131.117C139.084 139.255 151.147 139.878 152.206 131.493" stroke="black" stroke-width="3"/>
<ellipse cx="125.399" cy="129.082" rx="3.39214" ry="4.47763" transform="rotate(1.66898 125.399 129.082)" fill="black"/>
<ellipse cx="166.359" cy="130.276" rx="3.39214" ry="4.47763" transform="rotate(1.66898 166.359 130.276)" fill="black"/>
<path d="M153.758 13.0342L153.023 38.261L158.583 38.423L159.318 13.1962L153.758 13.0342Z" fill="#756555" stroke="black" stroke-width="3"/>
<path d="M148.342 35.8164C151.029 39.8765 158.539 39.9143 162.854 36.2393" stroke="black" stroke-width="3"/>
<path d="M159.554 19.0394C165.658 14.5567 182.267 5.42107 197.599 8.47406" stroke="black" stroke-width="3"/>
<path d="M164.272 15.5127C165.069 16.1241 167.776 17.3251 172.231 17.2378" stroke="black" stroke-width="3"/>
<path d="M171.836 12.2031C172.632 12.8146 175.339 14.0156 179.794 13.9282" stroke="black" stroke-width="3"/>
<path d="M179.254 9.16113C180.05 9.77257 183.013 11.524 187.468 11.4366" stroke="black" stroke-width="3"/>
<path d="M164.536 15.7914C164.714 14.3487 165.373 11.282 166.589 10.5573" stroke="black" stroke-width="3"/>
<path d="M171.824 12.6098C172.002 11.1671 172.661 8.10038 173.877 7.37564" stroke="black" stroke-width="3"/>
<path d="M179.505 9.84711C179.683 8.40437 180.343 5.33768 181.558 4.61294" stroke="black" stroke-width="3"/>
<path d="M43.831 60.4798L69.9257 61.4811C69.7425 66.2553 69.6156 69.5604 68.4144 72.0888C67.2695 73.1482 64.6545 74.1513 61.7004 74.4057L61.4749 80.2816L61.3502 102.712L61.9314 116.342L62.3424 124.817L60.8714 136.5L74.6565 139.633C74.2577 153.225 72.8712 161.501 68.4144 170.501C64.8712 173.5 60.6215 176.251 54.3712 180C48.8712 176.5 45.8712 174.5 41.8712 170.501C37.8716 162 36.4331 152.5 36.4331 138.166C40.8436 138.335 46.5102 136.565 50.949 136L50.949 124.379C51.3013 115.198 53.9093 95.193 52.6541 79.9431L52.8796 74.0672C47.8472 74.1193 43.3942 71.8643 43.831 60.4798Z" fill="#4A3530"/>
<path d="M61.4749 80.2816L61.7004 74.4057C64.6545 74.1513 67.2695 73.1482 68.4144 72.0888C69.6156 69.5604 69.7425 66.2553 69.9257 61.4811L43.831 60.4798C43.3942 71.8643 47.8472 74.1193 52.8796 74.0672L52.6541 79.9431M61.4749 80.2816L52.6541 79.9431M61.4749 80.2816L61.3502 102.712L61.9314 116.342L62.3424 124.817M52.6541 79.9431C53.9093 95.193 51.3013 115.198 50.949 124.379M50.949 124.379C54.6241 124.52 58.2994 124.662 62.3424 124.817M50.949 124.379L50.949 136C46.5102 136.565 40.8436 138.335 36.4331 138.166C36.4331 152.5 37.8716 162 41.8712 170.501C45.8712 174.5 48.8712 176.5 54.3712 180C60.6215 176.251 64.8712 173.5 68.4144 170.501C72.8712 161.501 74.2577 153.225 74.6565 139.633L60.8714 136.5L62.3424 124.817" stroke="black" stroke-width="3"/>
<path d="M61.8272 79.8955L52.4585 79.6351C54.497 83.1235 52.0754 110.457 50.6098 123.688L62.8751 124.853L61.8272 79.8955Z" fill="#D7D7D7" stroke="black" stroke-width="2"/>
<path d="M54.8711 151C50.3711 145 51.3715 138.5 51.3715 124.5L62.8714 125.5C60.3715 138.5 59.3715 147 54.8711 151Z" fill="#756555" stroke="black"/>
</svg>
