<svg width="162" height="289" viewBox="0 0 162 289" fill="none" xmlns="http://www.w3.org/2000/svg">
<path d="M20.3588 47.7311C37.0833 57.1387 46.4908 77.3475 49.104 86.2759C72.1003 75.8231 98.9727 81.9206 110.514 86.2759C113.781 68.6368 128.807 56.224 141.22 47.7311C131.42 43.158 113.781 55.5707 103.328 61.4505C98.1017 31.3986 113.781 16.3726 120.967 7.87972C105.811 3.17594 87.6488 26.3899 80.4625 38.5849C74.5828 31.1808 58.1196 13.4981 39.3045 2C54.4611 17.1566 57.8147 38.8027 57.597 47.7311C54.766 44.6824 45.9682 37.1476 33.4248 31.3986C40.7418 36.625 46.9264 53.6108 49.104 61.4505C45.8375 58.4017 35.5154 51.3896 20.3588 47.7311Z" fill="#51B749" stroke="black" stroke-width="3"/>
<path d="M159.669 189.498C162.622 238.982 146.446 286.84 85.6893 286.84C9.90608 286.84 1.68847 238.982 2.00865 189.498C2.35136 136.532 17.0922 81.7031 78.503 81.7031C139.914 81.7031 156.508 136.532 159.669 189.498Z" fill="#F6C238" stroke="black" stroke-width="3"/>
<path d="M79.8094 173.083C79.8094 187.782 101.613 188.272 103.083 173.083" stroke="black" stroke-width="3"/>
<ellipse cx="54.5756" cy="170.145" rx="6.1247" ry="8.08461" fill="black"/>
<ellipse cx="128.562" cy="170.144" rx="6.1247" ry="8.08461" fill="black"/>
</svg>
